<?xml version="1.0" encoding="UTF-8" standalone="no"?>
<svg
   xmlns:dc="http://purl.org/dc/elements/1.1/"
   xmlns:cc="http://creativecommons.org/ns#"
   xmlns:rdf="http://www.w3.org/1999/02/22-rdf-syntax-ns#"
   xmlns:svg="http://www.w3.org/2000/svg"
   xmlns="http://www.w3.org/2000/svg"
   version="1.1"
   width="270"
   height="105"
   id="svg13">
  <metadata
     id="metadata19">
    <rdf:RDF>
      <cc:Work
         rdf:about="">
        <dc:format>image/svg+xml</dc:format>
        <dc:type
           rdf:resource="http://purl.org/dc/dcmitype/StillImage" />
        <dc:title></dc:title>
      </cc:Work>
    </rdf:RDF>
  </metadata>
  <defs
     id="defs17" />
  <g
     id="layer1" />
  <path
     id="path953"
     style="font-style:normal;font-variant:normal;font-weight:bold;font-stretch:normal;font-size:48px;line-height:1.25;font-family:Futura;-inkscape-font-specification:'Futura Bold';font-variant-ligatures:normal;font-variant-caps:normal;font-variant-numeric:normal;font-variant-east-asian:normal;fill-opacity:1;stroke:none"
     d="m 0.4,15.216 h 8.688004 v 3.024 q 3.552,-3.408 7.968,-3.408 5.472,0 8.352,4.608 2.928,-4.656 8.352,-4.656 1.728,0 3.264,0.528 1.536,0.48 2.64,1.584 1.104,1.056 1.728,2.784 0.672,1.728 0.672,4.176 V 39.84 h -8.688 V 27.696 q 0,-1.872 -0.288,-3.072 -0.24,-1.2 -0.768,-1.872 -0.48,-0.672 -1.152,-0.912 -0.672,-0.24 -1.44,-0.24 -4.176,0 -4.176,6.096 V 39.84 h -8.688 V 27.696 q 0,-1.872 -0.24,-3.072 -0.24,-1.248 -0.72,-1.968 -0.432,-0.72 -1.152,-0.96 -0.72,-0.288 -1.68,-0.288 -0.816,0 -1.536,0.24 -0.72,0.24 -1.296,0.96 -0.528,0.672 -0.864,1.92 -0.288,1.2 -0.288,3.168 V 39.84 H 0.4 Z" />
  <path
     id="path959"
     style="font-style:normal;font-variant:normal;font-weight:bold;font-stretch:normal;font-size:48px;line-height:1.25;font-family:Futura;-inkscape-font-specification:'Futura Bold';font-variant-ligatures:normal;font-variant-caps:normal;font-variant-numeric:normal;font-variant-east-asian:normal;fill-opacity:1;stroke:none"
     d="M 123.93175,15.216 V 39.84 h -8.688 V 15.216 Z m -9.264,-9.456 q 0,-1.008 0.384,-1.872 0.384,-0.912 1.056,-1.584 0.672,-0.672 1.536,-1.056 0.912,-0.384 1.92,-0.384 1.008,0 1.872,0.384 0.912,0.384 1.584,1.056 0.672,0.672 1.056,1.584 0.384,0.864 0.384,1.872 0,1.008 -0.384,1.92 -0.384,0.864 -1.056,1.536 -0.672,0.672 -1.584,1.056 -0.864,0.384 -1.872,0.384 -1.008,0 -1.92,-0.384 -0.864,-0.384 -1.536,-1.056 -0.672,-0.672 -1.056,-1.536 -0.384,-0.912 -0.384,-1.92 z" />
  <path
     id="path961"
     style="font-style:normal;font-variant:normal;font-weight:bold;font-stretch:normal;font-size:48px;line-height:1.25;font-family:Futura;-inkscape-font-specification:'Futura Bold';font-variant-ligatures:normal;font-variant-caps:normal;font-variant-numeric:normal;font-variant-east-asian:normal;fill-opacity:1;stroke:none"
     d="m 138.55675,0 v 39.84 h -8.688 V 0 Z" />
  <path
     id="path963"
     style="font-style:normal;font-variant:normal;font-weight:bold;font-stretch:normal;font-size:48px;line-height:1.25;font-family:Futura;-inkscape-font-specification:'Futura Bold';font-variant-ligatures:normal;font-variant-caps:normal;font-variant-numeric:normal;font-variant-east-asian:normal;fill-opacity:1;stroke:none"
     d="M 153.18175,15.216 V 39.84 h -8.688 V 15.216 Z m -9.264,-9.456 q 0,-1.008 0.384,-1.872 0.384,-0.912 1.056,-1.584 0.672,-0.672 1.536,-1.056 0.912,-0.384 1.92,-0.384 1.008,0 1.872,0.384 0.912,0.384 1.584,1.056 0.672,0.672 1.056,1.584 0.384,0.864 0.384,1.872 0,1.008 -0.384,1.92 -0.384,0.864 -1.056,1.536 -0.672,0.672 -1.584,1.056 -0.864,0.384 -1.872,0.384 -1.008,0 -1.92,-0.384 -0.864,-0.384 -1.536,-1.056 -0.672,-0.672 -1.056,-1.536 -0.384,-0.912 -0.384,-1.92 z" />
  <path
     id="path965"
     style="font-style:normal;font-variant:normal;font-weight:bold;font-stretch:normal;font-size:48px;line-height:1.25;font-family:Futura;-inkscape-font-specification:'Futura Bold';font-variant-ligatures:normal;font-variant-caps:normal;font-variant-numeric:normal;font-variant-east-asian:normal;fill-opacity:1;stroke:none"
     d="M 168.81475,22.464 V 39.84 h -8.688 V 22.464 h -2.88 v -7.248 h 2.88 V 7.824 h 8.688 v 7.392 h 4.944 v 7.248 z" />
  <path
     id="path967"
     style="font-style:normal;font-variant:normal;font-weight:bold;font-stretch:normal;font-size:48px;line-height:1.25;font-family:Futura;-inkscape-font-specification:'Futura Bold';font-variant-ligatures:normal;font-variant-caps:normal;font-variant-numeric:normal;font-variant-east-asian:normal;fill-opacity:1;stroke:none"
     d="M 185.953,36.48 174.049,15.216 h 10.08 l 6.576,12.624 6.384,-12.624 h 9.984 l -19.776,36.912 h -9.744 z" />
  <path
     id="path969"
     style="font-style:normal;font-variant:normal;font-weight:bold;font-stretch:normal;font-size:48px;line-height:1.25;font-family:Futura;-inkscape-font-specification:'Futura Bold';font-variant-ligatures:normal;font-variant-caps:normal;font-variant-numeric:normal;font-variant-east-asian:normal;fill-opacity:1;stroke:none"
     d="m 237.529,39.84 h -29.136 l 8.976,-9.312 q 3.552,-3.696 5.568,-6.24 2.016,-2.592 2.976,-4.368 1.008,-1.776 1.248,-2.88 0.24,-1.104 0.24,-1.872 0,-0.816 -0.288,-1.584 -0.24,-0.768 -0.768,-1.344 -0.528,-0.624 -1.296,-0.96 -0.72,-0.384 -1.728,-0.384 -1.92,0 -3.024,1.248 -1.056,1.248 -1.056,3.12 0,0.528 0.144,1.536 h -10.272 q 0,-3.168 1.008,-5.76 1.056,-2.592 2.928,-4.464 1.872,-1.872 4.416,-2.88 2.592,-1.008 5.664,-1.008 3.024,0 5.568,0.96 2.592,0.96 4.464,2.688 1.872,1.728 2.928,4.128 1.056,2.352 1.056,5.136 0,2.976 -1.296,5.52 -1.248,2.496 -4.032,5.136 l -6,5.616 h 11.712 z" />
  <path
     id="path971"
     style="font-style:normal;font-variant:normal;font-weight:bold;font-stretch:normal;font-size:48px;line-height:1.25;font-family:Futura;-inkscape-font-specification:'Futura Bold';font-variant-ligatures:normal;font-variant-caps:normal;font-variant-numeric:normal;font-variant-east-asian:normal;fill-opacity:1;stroke:none"
     d="m 254.026,17.76 q 0.384,0.048 0.624,0.048 0.288,0 0.48,0 1.776,0 2.88,-1.056 1.104,-1.056 1.104,-2.736 0,-1.632 -1.056,-2.64 -1.008,-1.008 -2.64,-1.008 -1.728,0 -2.784,1.152 -1.056,1.152 -1.056,2.976 h -8.688 q 0.336,-2.832 1.392,-5.04 1.104,-2.208 2.784,-3.696 1.68,-1.536 3.936,-2.304 2.256,-0.816 4.992,-0.816 2.688,0 4.848,0.768 2.208,0.72 3.744,2.112 1.584,1.344 2.4,3.312 0.864,1.92 0.864,4.32 0,2.592 -1.008,4.272 -0.96,1.632 -2.784,2.832 2.784,0.864 4.32,3.12 1.584,2.208 1.584,5.472 0,2.688 -1.056,4.896 -1.056,2.208 -2.976,3.792 -1.872,1.584 -4.512,2.448 -2.592,0.864 -5.712,0.864 -4.176,0 -7.536,-1.632 -3.36,-1.632 -5.376,-5.184 -0.912,-1.584 -1.248,-3.168 -0.288,-1.584 -0.288,-3.216 h 9.312 q 0.096,2.544 1.488,3.888 1.392,1.296 3.744,1.296 2.496,0 3.648,-1.344 1.152,-1.344 1.152,-3.312 0,-2.352 -1.392,-3.552 -1.392,-1.2 -3.312,-1.2 -0.48,0 -0.912,0.096 -0.432,0.048 -0.96,0.144 z" />
  <g
     style="fill-opacity:1;fill-rule:evenodd;stroke-width:22.93420063;stroke-miterlimit:4;stroke-dasharray:none"
     transform="matrix(0.98879249,0,0,0.98879249,0.64639683,0.5276648)"
     id="g991">
    <path
       transform="matrix(1.0113345,0,0,1.0113345,-0.65372344,-0.53364564)"
       d="m 81.587891,0 v 24.173828 c -0.476409,4.144513 0.04348,8.680772 2.382812,12.259766 1.746294,4.990237 -5.32897,8.927417 -8.898437,5.246094 -4.430048,-4.1343 1.663609,-8.579109 1.30664,-13.214844 0.898852,-8.877751 -7.693568,-17.005105 -16.509765,-15.576172 -8.885037,0.833703 -15.197039,10.825751 -12.132813,19.207031 1.969363,6.477495 8.727953,10.631722 15.363281,10.207031 4.644685,1.223877 4.160285,5.48081 2.728516,9.039063 -0.416091,0.70635 -0.757885,1.440925 -1.03125,2.195312 -0.08177,0.151542 -0.160702,0.323243 -0.242187,0.466797 0.0208,0.02191 0.04168,0.04828 0.0625,0.07031 -1.513644,4.799189 -0.309079,10.28447 2.8125,14.226562 2.525906,6.154049 -4.716342,7.705205 -9.035157,8.445313 -8.290824,3.296251 -11.499392,14.660469 -6.203125,21.822265 4.312801,6.601024 14.065955,8.418854 20.451172,3.791024 6.806444,-4.406386 8.467885,-14.720218 3.337891,-21.011727 -3.446868,-4.375154 2.677793,-10.448469 7.199219,-7.486328 5.891701,3.583715 -0.602933,9.521026 0.537109,14.46875 0.350143,9.131613 10.430248,15.932755 19.027343,12.958985 8.6514,-2.36702 13.09391,-13.400036 8.5293,-21.109375 -2.9155,-5.66467 -9.5756,-8.373149 -15.707034,-7.59375 -5.251469,-0.611639 -5.699683,-8.696518 -0.828125,-10.296876 5.655249,-2.176254 6.989309,5.249015 11.314449,6.955079 7.59095,4.690405 18.65846,0.51637 21.22852,-8.03711 3.13545,-8.355104 -3.09132,-18.401332 -11.96875,-19.310547 -6.68654,-1.061366 -13.37693,3.200485 -15.896484,9.353516 -2.830274,3.291396 -6.067042,1.731576 -8.564454,-0.697266 -0.234191,-1.221549 -0.404,-2.313649 -0.318359,-3.537109 0.64661,-6.865641 8.826249,-3.619789 12.777347,-6.808594 8.05918,-4.307963 9.76769,-16.348065 3.33398,-22.779297 C 102.59906,12.81181 95.768503,11.744902 90.275391,13.925778 V 0 Z M 61.908203,21.75 c 3.914412,0.11017 7.04547,4.948406 4.742188,8.537109 -1.449033,2.690315 -5.11578,3.714569 -7.746094,2.150391 -4.365527,-2.172385 -3.465866,-9.381557 1.291015,-10.427734 0.577643,-0.194747 1.153689,-0.275505 1.712891,-0.259766 z m 34.138672,0.07031 c 0.92503,0.01148 1.848072,0.247629 2.669922,0.736329 4.365913,2.172214 3.465123,9.382903 -1.291016,10.429687 -4.621463,1.558383 -9.085803,-4.177991 -6.453125,-8.279297 0.996219,-1.849368 3.039154,-2.911966 5.074219,-2.886719 z m 17.240235,28.941407 c 3.28917,0.08116 6.50286,3.198402 5.64844,6.75 -0.61959,4.837182 -7.73017,6.344353 -10.26758,2.183593 -1.78585,-2.479569 -1.10376,-6.224715 1.45312,-7.90625 0.96566,-0.744026 2.06963,-1.054395 3.16602,-1.027343 z M 98.851562,81.597656 c 1.654348,0.08958 3.247768,0.851716 4.199218,2.41211 1.78553,2.479438 1.10329,6.224934 -1.45312,7.90625 -3.862643,2.976535 -9.95282,-0.987596 -8.814457,-5.722657 0.387109,-3.023532 3.311121,-4.745004 6.068359,-4.595703 z m -34.611328,2.921875 c 3.288975,0.08124 6.500325,3.198741 5.646485,6.75 -0.61942,4.83722 -7.730253,6.344168 -10.267578,2.183594 -1.785709,-2.479477 -1.103601,-6.224704 1.453125,-7.90625 0.96566,-0.744085 2.071643,-1.054423 3.167968,-1.027344 z"
       style="fill-opacity:1;stroke:none;stroke-width:22.67716629;stroke-opacity:1;fill-rule:evenodd;stroke-miterlimit:4;stroke-dasharray:none"
       id="path5-7-6" />
  </g>
</svg>
