<?xml version="1.0" encoding="UTF-8" standalone="no"?>
<svg
   xmlns:dc="http://purl.org/dc/elements/1.1/"
   xmlns:cc="http://creativecommons.org/ns#"
   xmlns:rdf="http://www.w3.org/1999/02/22-rdf-syntax-ns#"
   xmlns:svg="http://www.w3.org/2000/svg"
   xmlns="http://www.w3.org/2000/svg"
   xmlns:sodipodi="http://sodipodi.sourceforge.net/DTD/sodipodi-0.dtd"
   xmlns:inkscape="http://www.inkscape.org/namespaces/inkscape"
   inkscape:export-ydpi="1000"
   inkscape:export-xdpi="1000"
   inkscape:export-filename="/Users/thomas/bitmap.png"
   version="1.1"
   width="90"
   height="66"
   id="svg13"
   sodipodi:docname="logo.svg"
   inkscape:version="1.0beta2 (2b71d25, 2019-12-03)">
  <metadata
     id="metadata19">
    <rdf:RDF>
      <cc:Work
         rdf:about="">
        <dc:format>image/svg+xml</dc:format>
        <dc:type
           rdf:resource="http://purl.org/dc/dcmitype/StillImage" />
        <dc:title />
      </cc:Work>
    </rdf:RDF>
  </metadata>
  <defs
     id="defs17" />
  <sodipodi:namedview
     showguides="false"
     pagecolor="#ffffff"
     bordercolor="#666666"
     inkscape:document-rotation="0"
     borderopacity="1"
     objecttolerance="10"
     gridtolerance="10"
     guidetolerance="10"
     inkscape:pageopacity="0"
     inkscape:pageshadow="2"
     inkscape:window-width="1481"
     inkscape:window-height="788"
     id="namedview15"
     showgrid="true"
     inkscape:zoom="6.6557132"
     inkscape:cx="39.591087"
     inkscape:cy="45.60447"
     inkscape:window-x="93"
     inkscape:window-y="80"
     inkscape:window-maximized="0"
     inkscape:current-layer="svg13">
    <inkscape:grid
       type="xygrid"
       id="grid1084" />
  </sodipodi:namedview>
  <g
     inkscape:groupmode="layer"
     id="layer1"
     inkscape:label="Layer 1" />
  <g
     id="g1446">
    <path
       sodipodi:nodetypes="csccccsccsssccscccccsssscccccsccccccssccsssssssssssssss"
       inkscape:connector-curvature="0"
       style="fill:#0066ff;fill-opacity:0.98;stroke:none;stroke-width:0.0499722;stroke-opacity:1"
       id="path5"
       d="m 74.627031,31.659587 c -7.141403,-4.048885 -16.218881,-1.532416 -20.273335,5.618808 -0.02466,0.0435 -0.267416,0.533305 -0.315934,0.630235 -0.481376,0.885747 -1.748495,2.608586 -4.357363,2.678837 -2.61837,0.06988 -4.054093,-1.53766 -4.664351,-2.467859 -0.105848,-0.184713 -0.374527,-0.631004 -0.375894,-0.634147 -0.517998,-1.033965 -1.104553,-2.954906 0.113196,-5.102765 1.179747,-2.080832 3.050404,-2.515314 4.131229,-2.580851 0.24704,0.009 0.835255,0.0045 0.835255,0.0045 5.090673,-0.091 10.007873,-2.780927 12.703979,-7.536306 4.054454,-7.15118 1.552347,-16.2328043 -5.589455,-20.2819163 -7.141403,-4.0488852 -16.21889,-1.53242067 -20.273343,5.6188029 -2.696107,4.7553794 -2.480028,10.3554004 0.05622,14.7708184 0,0 0.297791,0.506824 0.43314,0.713792 0.498964,0.961213 1.086775,2.790341 -0.09297,4.871172 -1.217749,2.147859 -3.1682,2.630686 -4.321053,2.717874 -0.0012,1.16e-4 -0.93937,-0.0085 -0.93937,-0.0085 v 0 c -1.15249,-0.08845 -3.09844,-0.575089 -4.30687,-2.722332 -1.279947,-2.275051 -0.452056,-4.246914 0.061,-5.114699 0.05785,-0.0919 0.353472,-0.551475 0.378133,-0.594971 C 31.883695,15.088883 29.382197,6.0076038 22.240386,1.9584868 15.098784,-2.0905117 6.0215053,0.42607118 1.9670519,7.5772949 -2.0884225,14.730319 0.41293977,23.812303 7.5545421,27.861302 c 2.2329361,1.265984 4.4889349,1.889127 6.8875609,1.93062 0,0 0.670806,-0.0146 0.922745,-0.02256 1.06386,0.04796 3.006412,0.449089 4.211849,2.590945 1.259451,2.237866 0.56262,4.229719 0.02925,5.227566 -0.13291,0.209893 -0.423948,0.677604 -0.423948,0.677604 -4.017369,7.145626 -1.514072,16.195508 5.611794,20.235585 7.127258,4.040865 16.178446,1.540597 20.247227,-5.576938 l 0.005,0.0074 c 0,0 0.22299,-0.45515 0.32588,-0.656496 0.561106,-0.961291 1.913296,-2.648555 4.534769,-2.718776 2.457374,-0.06493 3.799397,1.395902 4.387031,2.284272 0.122542,0.220272 0.368738,0.661185 0.368738,0.661185 1.267174,2.037142 3.045478,3.794869 5.278214,5.06074 7.142194,4.049334 16.219221,1.531815 20.274691,-5.621201 4.054793,-7.151824 1.553687,-16.23288 -5.588507,-20.282214 z M 52.330454,9.9361602 c 2.760399,1.5650338 3.725939,5.0738448 2.159238,7.8371838 -1.567145,2.764122 -5.074032,3.73726 -7.834231,2.172339 -2.759599,-1.564581 -3.726335,-5.07408 -2.15919,-7.838203 1.566702,-2.763339 5.074584,-3.7359002 7.834183,-2.1713198 z M 12.061681,19.916156 C 9.3020907,18.35158 8.3353413,14.842084 9.9024913,12.077953 11.469306,9.3144137 14.976997,8.3417438 17.736787,9.9064328 c 2.759799,1.5646942 3.72634,5.0740712 2.159525,7.8376112 -1.56715,2.764131 -5.074832,3.736805 -7.834631,2.172112 z m 52.383312,29.699211 c -2.76019,-1.564916 -3.725939,-5.073845 -2.158789,-7.837976 1.566815,-2.763539 5.073705,-3.736663 7.833896,-2.171747 2.759398,1.564467 3.726148,5.073963 2.159333,7.837502 -1.56715,2.764131 -5.075041,3.736688 -7.83444,2.172221 z" />
    <path
       d="m 24.78195,89.750514 c 6.899604,-4.44843 8.881032,-13.657512 4.426484,-20.566607 -0.02709,-0.04202 -0.348411,-0.484289 -0.411775,-0.572234 -0.56139,-0.837324 -1.499879,-2.759043 -0.351937,-5.102835 1.152689,-2.352031 3.242791,-2.878258 4.349938,-2.987396 0.212741,-0.0081 0.73274,-0.03909 0.736159,-0.03884 1.156276,0.02073 3.130131,0.392166 4.468048,2.467299 1.296165,2.010378 0.813332,3.869143 0.370029,4.857049 -0.122624,0.214647 -0.39144,0.737866 -0.39144,0.737866 -2.280792,4.552056 -2.178727,10.155994 0.783434,14.750365 4.454548,6.909094 13.660641,8.905168 20.560634,4.456486 6.899607,-4.448431 8.881044,-13.657519 4.426495,-20.566613 -2.962161,-4.59437 -8.023469,-7.00063 -13.111591,-6.801947 0,0 -0.587132,0.02872 -0.833272,0.05261 -1.082994,-0.0038 -2.976097,-0.331576 -4.272259,-2.341959 -1.337915,-2.075137 -0.860892,-4.027018 -0.40336,-5.088778 4.8e-4,-0.0012 0.443272,-0.82825 0.443272,-0.82825 v 0 c 0.612962,-0.979966 1.946749,-2.478149 4.409553,-2.552658 2.609204,-0.07858 3.97205,1.569541 4.502831,2.426597 0.05459,0.09388 0.324587,0.568957 0.351681,0.61098 4.45455,6.909095 13.660051,8.905548 20.560052,4.456863 6.899799,-4.448557 8.881034,-13.657514 4.426485,-20.566607 -4.455671,-6.910836 -13.661735,-8.907735 -20.561534,-4.459179 -2.157333,1.390911 -3.755868,3.100449 -4.905279,5.206152 0,0 -0.29827,0.601024 -0.408006,0.827949 -0.535976,0.920231 -1.792435,2.45507 -4.249077,2.529426 -2.566755,0.07767 -4.008104,-1.463616 -4.644686,-2.399 -0.124291,-0.215108 -0.403635,-0.689897 -0.403635,-0.689897 -4.466791,-6.873644 -13.645315,-8.85394 -20.529913,-4.415186 -6.885941,4.439622 -8.869524,13.617897 -4.451466,20.524056 l -0.0089,0.0011 c 0,0 0.299781,0.408678 0.430427,0.593227 0.591327,0.943 1.458838,2.923582 0.305023,5.278526 -1.082425,2.207093 -2.99906,2.718379 -4.058656,2.826877 -0.251984,0.0064 -0.756793,0.01996 -0.756793,0.01996 -2.392516,0.177622 -4.774593,0.937671 -6.9317333,2.328456 -6.900371,4.448926 -8.88065393,13.658092 -4.4249913,20.568919 4.4549309,6.90966 13.6600436,8.906376 20.5604146,4.457448 z M 54.369524,80.07477 c -2.666938,1.719471 -6.223289,0.947212 -7.944592,-1.722564 -1.721792,-2.670534 -0.957156,-6.228706 1.709587,-7.948054 2.666163,-1.718973 6.223684,-0.947458 7.945476,1.723077 1.721304,2.669778 0.955692,6.228565 -1.710471,7.947541 z m 9.838192,-40.303656 c 2.666155,-1.718969 6.223675,-0.947463 7.945473,1.723079 1.721428,2.669971 0.956004,6.228638 -1.710343,7.94773 -2.666357,1.719099 -6.223674,0.947464 -7.945103,-1.722506 -1.721797,-2.670543 -0.956382,-6.229205 1.709973,-7.948303 z M 13.598018,72.401059 c 2.666734,-1.719343 6.223287,-0.947214 7.945084,1.723329 1.72143,2.669969 0.956779,6.228139 -1.709956,7.947482 -2.665971,1.718848 -6.22349,0.947342 -7.944919,-1.722628 -1.721796,-2.670542 -0.956179,-6.229333 1.709791,-7.948183 z"
       id="path5-2"
       style="fill:#0066ff;fill-opacity:0.98;stroke:none;stroke-width:0.0499722;stroke-opacity:1"
       inkscape:connector-curvature="0"
       sodipodi:nodetypes="csccccsccsssccscccccsssscccccsccccccssccsssssssssssssss" />
  </g>
</svg>
